<?xml version="1.0" encoding="UTF-8"?>
<svg version="1.1" xmlns="http://www.w3.org/2000/svg" width="37" height="33">
<path d="M0 0 C12.21 0 24.42 0 37 0 C37 10.89 37 21.78 37 33 C24.79 33 12.58 33 0 33 C0 22.11 0 11.22 0 0 Z " fill="#308156" transform="translate(0,0)"/>
<path d="M0 0 C3.53722811 2.9476901 4.41089097 4.5459974 5 9.0625 C4.51707914 13.08684049 3.18649404 15.07216942 0.625 18.1875 C-4.76260702 22.10070166 -9.93429426 21.99147159 -16.375 21.1875 C-20.33772663 19.00395676 -22.47732361 16.2824859 -24.375 12.1875 C-24.41374921 10.52128384 -24.4200286 8.85355828 -24.375 7.1875 C-25.035 6.5275 -25.695 5.8675 -26.375 5.1875 C-26.375 4.1975 -26.375 3.2075 -26.375 2.1875 C-24.04166667 2.1875 -21.70833333 2.1875 -19.375 2.1875 C-18.385 3.6725 -18.385 3.6725 -17.375 5.1875 C-16.715 4.8575 -16.055 4.5275 -15.375 4.1875 C-13.37539988 4.147508 -11.37452758 4.14403201 -9.375 4.1875 C-10.365 5.1775 -11.355 6.1675 -12.375 7.1875 C-8.415 7.1875 -4.455 7.1875 -0.375 7.1875 C-1.875 3.1875 -1.875 3.1875 -4.375 2.1875 C-9.11444653 1.87091615 -13.75947404 1.99639653 -18.375 3.1875 C-17.40202707 0.53393745 -16.68281348 -0.62237991 -14.25 -2.125 C-8.81592977 -3.42445158 -4.79574432 -2.57549232 0 0 Z " fill="#8BB21D" transform="translate(29.375,6.8125)"/>
<path d="M0 0 C5.94 0 11.88 0 18 0 C17 7 17 7 14.5625 9.375 C9.21830534 12.76400149 4.24090243 12.61659116 -2 12 C-5.52121839 9.95769333 -6.75217677 8.37173484 -9 5 C-8.625 2.8125 -8.625 2.8125 -8 1 C-7.01 2.65 -6.02 4.3 -5 6 C-3.824375 5.505 -2.64875 5.01 -1.4375 4.5 C4.17403686 2.39815227 9.20882713 2.5960793 15 4 C15.33 3.01 15.66 2.02 16 1 C10.72 1 5.44 1 0 1 C0 0.67 0 0.34 0 0 Z " fill="#C4D213" transform="translate(15,16)"/>
<path d="M0 0 C0.33 0.66 0.66 1.32 1 2 C1.639375 1.67 2.27875 1.34 2.9375 1 C7.81169071 -0.59157248 12.82530699 -1.0873465 17.5 1.25 C19 3 19 3 20 7 C15.38 7 10.76 7 6 7 C6.99 6.01 7.98 5.02 9 4 C6.36 4.33 3.72 4.66 1 5 C0.67 3.35 0.34 1.7 0 0 Z " fill="#167034" transform="translate(10,8)"/>
<path d="M0 0 C2.5625 2.25 2.5625 2.25 3.4375 5 C3.47875 5.7425 3.52 6.485 3.5625 7.25 C2.2425 7.25 0.9225 7.25 -0.4375 7.25 C-0.72625 6.610625 -1.015 5.97125 -1.3125 5.3125 C-2.26573451 3.09793921 -2.26573451 3.09793921 -4.4375 2.25 C-9.17694653 1.93341615 -13.82197404 2.05889653 -18.4375 3.25 C-17.46452707 0.59643745 -16.74531348 -0.55987991 -14.3125 -2.0625 C-8.88028287 -3.36150844 -4.84585346 -2.46697995 0 0 Z " fill="#DFE30C" transform="translate(29.4375,6.75)"/>
<path d="M0 0 C0.99 0.66 1.98 1.32 3 2 C2 5 2 5 -0.0625 6.25 C-4.11819262 7.28549599 -6.87997092 6.79742498 -11 6 C-11.99 5.34 -12.98 4.68 -14 4 C-14 3.34 -14 2.68 -14 2 C-9.16066459 0.41980885 -5.15943969 -0.39687998 0 0 Z " fill="#F7EF06" transform="translate(25,19)"/>
<path d="M0 0 C0.80695312 0.48082031 1.61390625 0.96164062 2.4453125 1.45703125 C6.72836458 3.31615825 10.26407898 3.55073539 14.875 3.6875 C15.65875 3.72166016 16.4425 3.75582031 17.25 3.79101562 C19.16618748 3.87280412 21.08306715 3.9380946 23 4 C22.67 5.32 22.34 6.64 22 8 C21.319375 7.835 20.63875 7.67 19.9375 7.5 C14.23420756 6.52922682 8.66096422 6.86780716 3 8 C2.67 8.66 2.34 9.32 2 10 C-0.4294516 6.3558226 -0.16179575 4.28758728 0 0 Z " fill="#1B722F" transform="translate(8,13)"/>
<path d="M0 0 C0.515625 0.763125 1.03125 1.52625 1.5625 2.3125 C5.47882092 6.63049486 10.32865082 8.14070467 16 9 C16 9.33 16 9.66 16 10 C8.00972287 11.60153703 8.00972287 11.60153703 4.0625 9.25 C0.99126787 5.89956495 0 4.66330237 0 0 Z " fill="#A4BE17" transform="translate(6,17)"/>
<path d="M0 0 C2.05078125 0.03255208 4.1015625 0.06510417 6.15234375 0.09765625 C6.15234375 0.75765625 6.15234375 1.41765625 6.15234375 2.09765625 C2.50441191 3.37019061 -1.04131055 4.42594819 -4.84765625 5.09765625 C-2.44354091 0.12915121 -2.44354091 0.12915121 0 0 Z " fill="#E3E50C" transform="translate(15.84765625,4.90234375)"/>
<path d="M0 0 C2.5 1.375 2.5 1.375 5 3 C5 3.66 5 4.32 5 5 C4.01 5 3.02 5 2 5 C1.67 5.66 1.34 6.32 1 7 C-1 4 -1 4 -0.625 1.8125 C-0.41875 1.214375 -0.2125 0.61625 0 0 Z " fill="#5B9625" transform="translate(9,16)"/>
<path d="M0 0 C-2.39509338 2.89932357 -4.31245243 3.50168276 -8 4 C-8 3.01 -8 2.02 -8 1 C-5.29120665 -0.35439668 -2.99066732 -0.06501451 0 0 Z " fill="#CDD913" transform="translate(20,11)"/>
<path d="M0 0 C2.64 0.33 5.28 0.66 8 1 C7.01 2.485 7.01 2.485 6 4 C2.375 4.1875 2.375 4.1875 -1 4 C-1 3.67 -1 3.34 -1 3 C0.65 3 2.3 3 4 3 C4 2.34 4 1.68 4 1 C2.68 0.67 1.36 0.34 0 0 Z " fill="#BCCE13" transform="translate(18,4)"/>
<path d="M0 0 C4.42857143 5.14285714 4.42857143 5.14285714 5 9 C2.5 6.75 2.5 6.75 0 4 C0 2.68 0 1.36 0 0 Z " fill="#C1D114" transform="translate(6,17)"/>
</svg>
